Coordinates
version=1
nRows=13
nColumns=18
inDegrees=yes

Units are S.I. units (second, meters, Newtons, ...)
If the header above contains a line with 'inDegrees', this indicates whether rotational values are in degrees (yes) or radians (no).

endheader
time	ground_thorax_rot_x	ground_thorax_rot_y	ground_thorax_rot_z	ground_thorax_tx	ground_thorax_ty	ground_thorax_tz	clav_prot	clav_elev	scapula_abduction	scapula_elevation	scapula_upward_rot	scapula_winging	plane_elv	shoulder_elv	axial_rot	elbow_flexion	pro_sup
      0.00000000	      3.65063351	      1.42635658	     -8.13089749	     -0.00444180	      0.00479110	     -0.00034135	    -26.05238936	     -4.44264297	    -18.26567122	     -4.43323885	     13.28207680	      5.32554632	    -40.21530314	     12.05380622	     66.68858201	      0.00000000	     34.32000000
      0.01000000	      3.65079253	      1.42677549	     -8.13050867	     -0.00439866	      0.00476855	     -0.00033741	    -26.05232937	     -4.44283034	    -18.26548812	     -4.43339620	     13.28218964	      5.32572151	    -40.21523928	     12.05363650	     66.68858348	      0.00000000	     34.32000000
      0.02000000	      3.65080563	      1.42726579	     -8.13025449	     -0.00436638	      0.00476597	     -0.00032663	    -26.05226582	     -4.44296553	    -18.26527629	     -4.43352640	     13.28230738	      5.32574285	    -40.21516732	     12.05351998	     66.68858659	      0.00000000	     34.32000000
      0.03000000	      3.65077835	      1.42770577	     -8.13012834	     -0.00435984	      0.00475833	     -0.00030070	    -26.05221959	     -4.44306007	    -18.26508647	     -4.43363469	     13.28245617	      5.32574135	    -40.21509671	     12.05354717	     66.68859072	      0.00000000	     34.32000000
      0.04000000	      3.65114281	      1.42797889	     -8.12993089	     -0.00437620	      0.00471663	     -0.00027912	    -26.05219035	     -4.44330109	    -18.26494920	     -4.43382854	     13.28249852	      5.32581552	    -40.21505178	     12.05360749	     66.68858696	      0.00000000	     34.32000000
      0.05000000	      3.65210696	      1.42794313	     -8.12966741	     -0.00440198	      0.00466186	     -0.00029433	    -26.05216472	     -4.44371105	    -18.26494304	     -4.43407613	     13.28225011	      5.32601985	    -40.21508081	     12.05352698	     66.68856266	      0.00000000	     34.32000000
      0.06000000	      3.67537791	      1.43076772	     -8.12673698	     -0.00440891	      0.00471306	     -0.00029592	    -26.05107989	     -4.45347745	    -18.26497419	     -4.43950089	     13.27464011	      5.33134087	    -40.21563147	     12.05244912	     66.68783091	      0.00000000	     34.32000000
      0.07000000	      3.67549047	      1.43104209	     -8.12658279	     -0.00433509	      0.00476143	     -0.00036927	    -26.05103813	     -4.45353401	    -18.26494926	     -4.43951422	     13.27453571	      5.33138943	    -40.21557413	     12.05212488	     66.68782326	      0.00000000	     34.32000000
      0.08000000	      3.67530024	      1.43175709	     -8.12626236	     -0.00424089	      0.00481605	     -0.00042465	    -26.05094730	     -4.45359580	    -18.26476079	     -4.43956363	     13.27456648	      5.33140903	    -40.21543214	     12.05158947	     66.68782165	      0.00000000	     34.32000000
      0.09000000	      3.67494719	      1.43217631	     -8.12618025	     -0.00423668	      0.00483208	     -0.00043680	    -26.05094939	     -4.45361254	    -18.26468341	     -4.43961102	     13.27469816	      5.33138188	    -40.21531722	     12.05135056	     66.68782680	      0.00000000	     34.32000000
      0.10000000	      3.67439469	      1.43180232	     -8.12676323	     -0.00433966	      0.00482851	     -0.00040748	    -26.05111105	     -4.45336591	    -18.26494757	     -4.43946641	     13.27482731	      5.33125426	    -40.21533245	     12.05175754	     66.68783436	      0.00000000	     34.32000000
      0.11000000	      3.67379564	      1.43106012	     -8.12779876	     -0.00444371	      0.00482576	     -0.00035937	    -26.05131076	     -4.45287152	    -18.26541341	     -4.43910192	     13.27483208	      5.33106992	    -40.21546599	     12.05258717	     66.68783853	      0.00000000	     34.32000000
      0.12000000	      3.66930682	      1.41686666	     -8.15316387	     -0.00437017	      0.00474263	     -0.00029884	    -26.05471086	     -4.43945130	    -18.27848137	     -4.42733432	     13.26830099	      5.32782810	    -40.22093562	     12.07460094	     66.68730717	      0.00000000	     34.32000000
